<svg width="740" height="402" viewBox="0 0 740 402" fill="none" xmlns="http://www.w3.org/2000/svg">
<path d="M239.339 330.788C226.497 320.411 222.873 307.808 222.63 302.697C227.176 300.356 239.847 297.287 255.256 303.22C270.853 309.226 272.864 324.29 271.939 331.155C266.455 335.39 252.34 341.293 239.339 330.788Z" fill="#3B8E46"/>
<path d="M222.962 303.697C222.738 303.568 222.662 303.282 222.791 303.059L223.024 302.655C223.153 302.432 223.438 302.355 223.662 302.484L279.427 334.681L278.727 335.893L222.962 303.697Z" fill="#3B8E46"/>
<path d="M215.68 261.087C200.449 243.602 198.511 225.287 199.421 218.159C206.279 216.03 224.553 214.876 244.417 226.839C264.525 238.95 263.632 260.275 260.679 269.545C252.061 274.065 231.099 278.786 215.68 261.087Z" fill="#3B8E46"/>
<path d="M199.635 219.623C199.358 219.39 199.322 218.977 199.555 218.699L199.976 218.197C200.208 217.92 200.622 217.884 200.899 218.117L270.176 276.247L268.912 277.753L199.635 219.623Z" fill="#3B8E46"/>
<path d="M189.017 203.232C168.728 196.269 158.704 182.493 156.136 176.362C160.645 171.484 174.751 162.107 196.198 162.504C217.908 162.906 227.057 180.403 228.978 189.195C224.165 196.801 209.555 210.279 189.017 203.232Z" fill="#3B8E46"/>
<path d="M156.985 177.435C156.655 177.377 156.435 177.063 156.493 176.733L156.598 176.136C156.657 175.806 156.971 175.586 157.301 175.644L239.686 190.171L239.37 191.962L156.985 177.435Z" fill="#3B8E46"/>
<path d="M317.669 366.191C329.654 352.432 331.179 338.021 330.463 332.412C325.066 330.736 310.687 329.828 295.056 339.242C279.234 348.772 279.936 365.552 282.26 372.846C289.041 376.403 305.536 380.118 317.669 366.191Z" fill="#3B8E46"/>
<path d="M330.294 333.563C330.512 333.38 330.54 333.055 330.357 332.837L330.026 332.442C329.843 332.224 329.518 332.195 329.299 332.378L274.787 378.12L275.781 379.305L330.294 333.563Z" fill="#3B8E46"/>
<path d="M322.91 281.516C334.882 261.639 333.609 243.253 331.474 236.387C324.345 235.48 306.136 237.518 288.639 252.76C270.928 268.189 275.513 289.049 280.034 297.671C289.312 300.627 310.791 301.637 322.91 281.516Z" fill="#3B8E46"/>
<path d="M331.516 237.866C331.749 237.589 331.713 237.175 331.436 236.942L330.933 236.521C330.656 236.288 330.242 236.324 330.009 236.602L271.84 305.925L273.347 307.19L331.516 237.866Z" fill="#3B8E46"/>
<path d="M309.72 194.51C322.69 172.977 321.311 153.059 318.998 145.621C311.275 144.638 291.548 146.846 272.594 163.358C253.407 180.073 258.374 202.671 263.272 212.011C273.323 215.214 296.591 216.308 309.72 194.51Z" fill="#3B8E46"/>
<path d="M319.044 147.223C319.296 146.923 319.257 146.475 318.956 146.223L318.412 145.766C318.112 145.514 317.663 145.553 317.411 145.854L254.395 220.954L256.027 222.324L319.044 147.223Z" fill="#3B8E46"/>
<path d="M247.537 136.91C256.588 121.883 255.625 107.983 254.011 102.791C248.622 102.106 234.855 103.647 221.627 115.17C208.237 126.835 211.703 142.606 215.121 149.124C222.136 151.359 238.374 152.123 247.537 136.91Z" fill="#3B8E46"/>
<path d="M254.043 103.91C254.219 103.7 254.192 103.388 253.982 103.212L253.603 102.893C253.393 102.717 253.08 102.744 252.904 102.954L208.926 155.365L210.066 156.321L254.043 103.91Z" fill="#3B8E46"/>
<path d="M208.979 99.0676C212.344 81.8503 206.686 69.1176 203.393 64.7917C198.095 65.9906 185.685 72.1471 177.196 87.4996C168.603 103.041 177.254 116.675 182.696 121.631C190.051 121.333 205.572 116.496 208.979 99.0676Z" fill="#3B8E46"/>
<path d="M203.806 65.8318C203.9 65.5745 203.767 65.29 203.51 65.1963L203.044 65.0268C202.787 64.9331 202.502 65.0658 202.409 65.3231L179.009 129.614L180.406 130.123L203.806 65.8318Z" fill="#3B8E46"/>
<path d="M172.682 60.0243C169.062 37.0069 156.215 23.6858 150.141 19.7823C144.072 23.6858 131.381 37.0069 127.76 60.0243C124.095 83.3243 141.086 96.411 150.129 100.125C159.174 96.411 176.347 83.3243 172.682 60.0243Z" fill="#3B8E46"/>
<path d="M151.129 20.8929C151.129 20.5292 150.834 20.2344 150.47 20.2344H149.812C149.448 20.2344 149.153 20.5292 149.153 20.8929V111.764H151.129V20.8929Z" fill="#3B8E46"/>
<path d="M111.396 38.6818C100.122 18.2909 83.4941 10.1668 76.4511 8.57629C72.0834 14.3199 64.7133 31.1785 69.1833 54.0461C73.7083 77.1945 94.1507 83.6807 103.918 84.0778C111.148 77.4943 122.81 59.3231 111.396 38.6818Z" fill="#3B8E46"/>
<path d="M77.7592 9.28196C77.6348 8.94022 77.2569 8.76402 76.9152 8.8884L76.2964 9.11361C75.9547 9.238 75.7785 9.61586 75.9029 9.9576L106.983 95.3481L108.839 94.6725L77.7592 9.28196Z" fill="#3B8E46"/>
<path d="M40.4483 70.0812C17.4309 73.7019 4.10973 86.548 0.206299 92.6223C4.10973 98.691 17.4309 111.383 40.4483 115.003C63.7483 118.669 76.835 101.677 80.5489 92.6346C76.835 83.5897 63.7483 66.416 40.4483 70.0812Z" fill="#3B8E46"/>
<path d="M1.31693 91.6345C0.953258 91.6345 0.658447 91.9293 0.658447 92.293V92.9515C0.658447 93.3151 0.95326 93.6099 1.31693 93.6099H92.1877V91.6345H1.31693Z" fill="#3B8E46"/>
<path d="M161.743 168.681C144.663 172.02 132.031 166.407 127.74 163.141C128.929 157.884 135.037 145.573 150.267 137.151C165.685 128.627 179.211 137.209 184.128 142.607C183.832 149.905 179.033 165.302 161.743 168.681Z" fill="#3B8E46"/>
<path d="M128.772 163.55C128.516 163.643 128.234 163.512 128.141 163.256L127.973 162.794C127.88 162.539 128.012 162.257 128.267 162.164L192.047 138.949L192.552 140.336L128.772 163.55Z" fill="#3B8E46"/>
<path d="M114.341 139.412C99.4322 148.391 85.6426 147.437 80.4928 145.835C79.8125 140.489 81.3411 126.831 92.7728 113.708C104.345 100.425 119.99 103.863 126.457 107.254C128.675 114.213 129.432 130.322 114.341 139.412Z" fill="#3B8E46"/>
<path d="M81.6024 145.867C81.3944 146.042 81.0841 146.015 80.9095 145.806L80.5934 145.43C80.4188 145.222 80.4459 144.911 80.654 144.737L132.648 101.108L133.597 102.239L81.6024 145.867Z" fill="#3B8E46"/>
<path d="M273.687 400.576C282.021 344.576 280.487 216.076 207.687 150.076C181.687 126.909 117.787 83.3758 70.1875 94.5758" stroke="#3D9448" stroke-width="5"/>
<path d="M499.848 330.788C512.691 320.411 516.314 307.808 516.557 302.697C512.012 300.356 499.34 297.287 483.932 303.22C468.334 309.226 466.324 324.29 467.248 331.155C472.732 335.39 486.848 341.293 499.848 330.788Z" fill="#3B8E46"/>
<path d="M516.226 303.697C516.449 303.568 516.525 303.282 516.397 303.059L516.163 302.655C516.034 302.432 515.749 302.355 515.526 302.484L459.76 334.681L460.46 335.893L516.226 303.697Z" fill="#3B8E46"/>
<path d="M523.507 261.087C538.739 243.602 540.677 225.287 539.767 218.159C532.909 216.03 514.634 214.876 494.771 226.839C474.663 238.95 475.555 260.275 478.509 269.545C487.126 274.065 508.089 278.786 523.507 261.087Z" fill="#3B8E46"/>
<path d="M539.552 219.623C539.829 219.39 539.866 218.977 539.633 218.699L539.212 218.197C538.979 217.92 538.566 217.884 538.288 218.117L469.012 276.247L470.275 277.753L539.552 219.623Z" fill="#3B8E46"/>
<path d="M550.171 203.232C570.46 196.269 580.484 182.493 583.051 176.362C578.542 171.484 564.436 162.107 542.989 162.504C521.279 162.906 512.131 180.403 510.209 189.195C515.022 196.801 529.632 210.279 550.171 203.232Z" fill="#3B8E46"/>
<path d="M582.203 177.435C582.532 177.377 582.752 177.063 582.694 176.733L582.589 176.136C582.531 175.806 582.216 175.586 581.887 175.644L499.501 190.171L499.817 191.962L582.203 177.435Z" fill="#3B8E46"/>
<path d="M421.519 366.191C409.534 352.432 408.009 338.021 408.725 332.412C414.121 330.736 428.501 329.828 444.131 339.242C459.954 348.772 459.252 365.552 456.928 372.846C450.147 376.403 433.652 380.118 421.519 366.191Z" fill="#3B8E46"/>
<path d="M408.894 333.563C408.676 333.38 408.647 333.055 408.83 332.837L409.162 332.442C409.345 332.224 409.67 332.195 409.888 332.378L464.401 378.12L463.406 379.305L408.894 333.563Z" fill="#3B8E46"/>
<path d="M416.278 281.516C404.306 261.639 405.579 243.253 407.714 236.387C414.842 235.48 433.052 237.518 450.548 252.76C468.259 268.189 463.674 289.049 459.153 297.671C449.876 300.627 428.397 301.637 416.278 281.516Z" fill="#3B8E46"/>
<path d="M407.671 237.866C407.438 237.589 407.474 237.175 407.752 236.942L408.254 236.521C408.532 236.288 408.945 236.324 409.178 236.602L467.347 305.925L465.84 307.19L407.671 237.866Z" fill="#3B8E46"/>
<path d="M429.467 194.51C416.498 172.977 417.877 153.059 420.19 145.621C427.912 144.638 447.639 146.846 466.593 163.358C485.781 180.073 480.813 202.671 475.916 212.011C465.865 215.214 442.596 216.308 429.467 194.51Z" fill="#3B8E46"/>
<path d="M420.144 147.223C419.891 146.923 419.931 146.475 420.231 146.223L420.775 145.766C421.076 145.514 421.524 145.553 421.776 145.854L484.793 220.954L483.16 222.324L420.144 147.223Z" fill="#3B8E46"/>
<path d="M491.651 136.91C482.6 121.883 483.562 107.983 485.176 102.791C490.566 102.106 504.333 103.647 517.56 115.17C530.951 126.835 527.484 142.606 524.066 149.124C517.052 151.359 500.813 152.123 491.651 136.91Z" fill="#3B8E46"/>
<path d="M485.144 103.91C484.968 103.7 484.995 103.388 485.205 103.212L485.585 102.893C485.795 102.717 486.107 102.744 486.283 102.954L530.261 155.365L529.122 156.321L485.144 103.91Z" fill="#3B8E46"/>
<path d="M530.209 99.0676C526.843 81.8503 532.502 69.1176 535.794 64.7917C541.093 65.9906 553.503 72.1471 561.991 87.4996C570.585 103.041 561.933 116.675 556.492 121.631C549.136 121.333 533.616 116.496 530.209 99.0676Z" fill="#3B8E46"/>
<path d="M535.381 65.8318C535.288 65.5745 535.42 65.29 535.677 65.1963L536.143 65.0268C536.401 64.9331 536.685 65.0658 536.779 65.3231L560.179 129.614L558.781 130.123L535.381 65.8318Z" fill="#3B8E46"/>
<path d="M566.505 60.0243C570.126 37.0069 582.972 23.6858 589.046 19.7823C595.115 23.6858 607.807 37.0069 611.427 60.0243C615.093 83.3243 598.101 96.411 589.059 100.125C580.014 96.411 562.84 83.3243 566.505 60.0243Z" fill="#3B8E46"/>
<path d="M588.059 20.8929C588.059 20.5292 588.353 20.2344 588.717 20.2344H589.376C589.739 20.2344 590.034 20.5292 590.034 20.8929V111.764H588.059V20.8929Z" fill="#3B8E46"/>
<path d="M627.791 38.6818C639.066 18.2909 655.693 10.1668 662.736 8.57629C667.104 14.3199 674.474 31.1785 670.004 54.0461C665.479 77.1945 645.037 83.6807 635.269 84.0778C628.04 77.4943 616.378 59.3231 627.791 38.6818Z" fill="#3B8E46"/>
<path d="M661.428 9.28196C661.553 8.94022 661.93 8.76402 662.272 8.8884L662.891 9.11361C663.233 9.238 663.409 9.61586 663.285 9.9576L632.205 95.3481L630.349 94.6725L661.428 9.28196Z" fill="#3B8E46"/>
<path d="M698.739 70.0812C721.757 73.7019 735.078 86.548 738.981 92.6223C735.078 98.691 721.757 111.383 698.739 115.003C675.439 118.669 662.352 101.677 658.638 92.6346C662.352 83.5897 675.439 66.416 698.739 70.0812Z" fill="#3B8E46"/>
<path d="M737.871 91.6345C738.234 91.6345 738.529 91.9293 738.529 92.293V92.9515C738.529 93.3151 738.234 93.6099 737.871 93.6099H647V91.6345H737.871Z" fill="#3B8E46"/>
<path d="M577.444 168.681C594.525 172.02 607.156 166.407 611.448 163.141C610.258 157.884 604.151 145.573 588.92 137.151C573.503 128.627 559.977 137.209 555.06 142.607C555.356 149.905 560.154 165.302 577.444 168.681Z" fill="#3B8E46"/>
<path d="M610.416 163.55C610.671 163.643 610.953 163.512 611.046 163.256L611.215 162.794C611.307 162.539 611.176 162.257 610.921 162.164L547.14 138.949L546.635 140.336L610.416 163.55Z" fill="#3B8E46"/>
<path d="M624.847 139.412C639.755 148.391 653.545 147.437 658.695 145.835C659.375 140.489 657.846 126.831 646.415 113.708C634.843 100.425 619.197 103.863 612.73 107.254C610.513 114.213 609.755 130.322 624.847 139.412Z" fill="#3B8E46"/>
<path d="M657.585 145.867C657.793 146.042 658.103 146.015 658.278 145.806L658.594 145.43C658.769 145.222 658.742 144.911 658.534 144.737L606.539 101.108L605.591 102.239L657.585 145.867Z" fill="#3B8E46"/>
<path d="M465.5 400.576C457.167 344.576 458.7 216.076 531.5 150.076C557.5 126.909 621.4 83.3758 669 94.5758" stroke="#3D9448" stroke-width="5"/>
</svg>
